<?xml version="1.0" encoding="UTF-8"?>
<svg xmlns="http://www.w3.org/2000/svg" viewBox="0 0 1894 475" width="1024" height="256.81" role="img" aria-label="pack-mark">
<path d="M0 0 C1.65 0 3.3 0 5 0 C5 0.33 5 0.66 5 1 C3.35 1 1.7 1 0 1 C0 0.67 0 0.34 0 0 Z " fill="#707070" transform="translate(1842,24)"/>
<path d="M0 0 C7.581 -0.327 14.696 0.236 22.188 1.375 C23.018 1.501 23.848 1.627 24.704 1.757 C30.188 2.628 35.594 3.734 41 5 C42.085 8.255 42.036 8.598 40.843 11.581 C40.561 12.299 40.279 13.017 39.989 13.756 C39.83 14.148 39.83 14.148 39.024 16.127 C38.696 16.955 38.368 17.783 38.029 18.636 C36.939 21.378 35.835 24.115 34.73 26.852 C33.971 28.75 33.212 30.649 32.454 32.549 C30.861 36.531 29.263 40.51 27.659 44.487 C25.6 49.596 23.555 54.709 21.515 59.825 C19.95 63.748 18.377 67.668 16.803 71.586 C16.046 73.472 15.291 75.358 14.539 77.244 C13.487 79.876 12.427 82.504 11.364 85.131 C11.052 85.918 10.739 86.704 10.418 87.515 C10.127 88.227 9.837 88.939 9.538 89.673 C9.288 90.295 9.038 90.917 8.78 91.558 C8 93 8 93 6 94 C3.921 93.28 1.968 92.501 -0.039 91.613 C-0.639 91.355 -1.238 91.097 -1.856 90.831 C-3.131 90.28 -4.403 89.726 -5.674 89.168 C-7.593 88.326 -9.517 87.495 -11.441 86.666 C-17.721 83.948 -23.92 81.147 -30 78 C-29.431 73.942 -28.538 70.433 -26.978 66.647 C-26.56 65.625 -26.142 64.602 -25.712 63.549 C-25.253 62.444 -24.795 61.339 -24.336 60.234 C-23.86 59.076 -23.385 57.917 -22.911 56.757 C-21.66 53.704 -20.401 50.654 -19.141 47.605 C-17.149 42.781 -15.168 37.952 -13.185 33.124 C-12.704 31.95 -12.221 30.777 -11.739 29.603 C-7.702 19.783 -3.789 9.919 0 0 Z " fill="#707070" transform="translate(1830,52)"/>
<path d="M0 0 C33 0 66 0 100 0 C100 13.53 100 27.06 100 41 C99.67 40.34 99.34 39.68 99 39 C98.605 39.015 98.605 39.015 96.603 39.092 C73.797 39.923 51.007 40.09 28.188 40.062 C27.827 40.062 27.827 40.062 26.001 40.06 C17 40.048 8 40.028 -1 40 C-1.177 26.619 -0.558 13.403 0 0 Z " fill="#707070" transform="translate(631,105)"/>
<path d="M0 0 C25.97 10.701 25.97 10.701 37 16 C36.375 21.02 34.872 25.316 32.981 29.993 C32.672 30.771 32.363 31.549 32.044 32.351 C31.026 34.908 30 37.462 28.973 40.016 C28.261 41.796 27.55 43.576 26.839 45.356 C25.351 49.08 23.858 52.802 22.363 56.522 C20.444 61.297 18.535 66.075 16.629 70.854 C15.164 74.528 13.693 78.199 12.221 81.869 C11.515 83.631 10.81 85.393 10.107 87.156 C9.126 89.614 8.138 92.07 7.149 94.524 C6.858 95.256 6.568 95.987 6.268 96.741 C5.998 97.408 5.727 98.075 5.449 98.763 C5.216 99.343 4.983 99.923 4.743 100.521 C4 102 4 102 2 104 C-11.009 100.406 -23.808 96.86 -36 91 C-34.105 85.136 -32.039 79.382 -29.738 73.666 C-29.427 72.888 -29.116 72.109 -28.796 71.308 C-27.78 68.768 -26.761 66.23 -25.742 63.691 C-25.031 61.916 -24.32 60.14 -23.61 58.364 C-22.127 54.659 -20.643 50.955 -19.157 47.251 C-17.25 42.498 -15.346 37.744 -13.444 32.99 C-11.979 29.331 -10.514 25.672 -9.048 22.014 C-8.345 20.26 -7.643 18.506 -6.94 16.752 C-5.962 14.31 -4.983 11.869 -4.003 9.428 C-3.713 8.701 -3.422 7.975 -3.122 7.226 C-1.115 2.229 -1.115 2.229 0 0 Z " fill="#707070" transform="translate(1787,160)"/>
<path d="M0 0 C4.498 4.498 4.165 12.459 4.312 18.5 C4.22 34.082 1.171 53.497 -7 67 C-9.348 68.318 -11.306 68.492 -14 69 C-14.043 70.666 -14.041 72.334 -14 74 C-12.542 75.458 -11.363 75.191 -9.324 75.281 C-8.578 75.319 -7.833 75.356 -7.064 75.395 C-6.672 75.412 -6.672 75.412 -4.688 75.5 C-3.15 75.569 -1.612 75.642 -0.074 75.719 C0.611 75.749 1.296 75.779 2.001 75.811 C4.081 76.008 5.989 76.444 8 77 C8.08 76.224 8.161 75.448 8.244 74.648 C8.548 71.733 8.859 68.818 9.172 65.904 C9.306 64.649 9.438 63.394 9.567 62.139 C10.277 55.288 11.09 48.643 13 42 C13.99 42 14.98 42 16 42 C17.695 61.603 15.254 75.89 6.91 93.597 C2.832 102.339 -0.584 111.357 -4.089 120.34 C-5.603 124.216 -7.13 128.088 -8.657 131.959 C-10.107 135.639 -11.554 139.319 -13 143 C-15.661 141.709 -17.766 140.497 -19.918 138.461 C-20.446 137.967 -20.973 137.472 -21.517 136.963 C-22.068 136.439 -22.62 135.915 -23.188 135.375 C-24.35 134.29 -25.513 133.205 -26.676 132.121 C-28.243 130.652 -29.809 129.181 -31.369 127.704 C-36.002 123.326 -39.925 120.068 -46 118 C-45.379 112.125 -43.186 107.018 -40.971 101.576 C-40.555 100.539 -40.138 99.503 -39.709 98.435 C-38.572 95.604 -37.428 92.777 -36.282 89.95 C-35.081 86.984 -33.887 84.016 -32.693 81.048 C-30.43 75.428 -28.161 69.811 -25.89 64.195 C-23.312 57.819 -20.74 51.44 -18.17 45.061 C-13.774 34.154 -9.373 23.249 -4.967 12.346 C-4.603 11.447 -4.24 10.549 -3.866 9.623 C-3.552 8.846 -3.238 8.07 -2.915 7.27 C-1.939 4.848 -0.969 2.424 0 0 Z " fill="#707070" transform="translate(70,171)"/>
<path d="M0 0 C22.136 0 22.136 0 30.625 0.438 C31.079 0.457 31.079 0.457 33.375 0.557 C34.234 0.599 35.092 0.64 35.977 0.684 C36.353 0.702 36.353 0.702 38.26 0.795 C40 1 40 1 41 2 C41.095 4.617 41.126 7.207 41.114 9.824 C41.114 10.644 41.114 11.463 41.114 12.308 C41.113 15.029 41.105 17.751 41.098 20.473 C41.096 22.355 41.094 24.236 41.093 26.118 C41.09 31.081 41.08 36.045 41.069 41.008 C41.058 46.068 41.054 51.129 41.049 56.189 C41.038 66.126 41.021 76.063 41 86 C39.564 86.486 38.128 86.971 36.691 87.454 C35.891 87.724 35.091 87.994 34.267 88.272 C23.124 91.849 11.611 91 0 91 C0 60.97 0 30.94 0 0 Z " fill="#707070" transform="translate(1216,178)"/>
<path d="M0 0 C0.33 0 0.66 0 1 0 C1.262 8.189 1.523 16.378 1.782 24.567 C1.903 28.371 2.023 32.174 2.146 35.977 C2.263 39.654 2.38 43.33 2.496 47.006 C2.54 48.403 2.584 49.799 2.63 51.196 C2.864 58.465 3.077 65.726 3 73 C2.681 73.193 2.681 73.193 1.066 74.172 C0.24 74.693 -0.586 75.213 -1.438 75.75 C-2.261 76.26 -3.085 76.771 -3.934 77.297 C-6 79 -6 79 -7 83 C1.58 83 10.16 83 19 83 C18.835 79.143 18.67 75.286 18.5 71.312 C18.304 65.876 18.144 60.438 18 55 C17.979 54.212 17.958 53.423 17.936 52.611 C17.807 47.625 17.713 42.64 17.658 37.652 C17.636 36.017 17.605 34.382 17.566 32.747 C17.223 18.081 17.223 18.081 20.523 13.426 C21.341 12.625 22.158 11.825 23 11 C26.875 12.75 26.875 12.75 28 15 C32.881 49.088 26.215 76.242 11.92 107.104 C7.515 116.646 3.546 126.337 -0.336 136.102 C-0.642 136.872 -0.949 137.641 -1.265 138.435 C-2.802 142.3 -4.336 146.168 -5.868 150.036 C-8.503 156.686 -11.155 163.329 -13.828 169.964 C-14.621 171.936 -15.407 173.911 -16.193 175.886 C-16.671 177.073 -17.149 178.261 -17.628 179.448 C-17.834 179.962 -17.834 179.962 -18.876 182.566 C-20 185 -20 185 -22 187 C-22.701 186.287 -23.403 185.574 -24.125 184.84 C-25.083 183.872 -26.042 182.905 -27 181.938 C-27.458 181.472 -27.915 181.006 -28.387 180.525 C-31.082 177.812 -33.847 175.241 -36.75 172.75 C-41.741 168.429 -46.359 163.751 -51 159.062 C-51.879 158.179 -52.758 157.295 -53.637 156.412 C-55.761 154.278 -57.881 152.139 -60 150 C-56.059 139.372 -51.982 128.809 -47.762 118.289 C-47.19 116.859 -46.618 115.43 -46.046 114 C-44.863 111.044 -43.679 108.088 -42.494 105.132 C-40.975 101.342 -39.457 97.551 -37.941 93.76 C-36.767 90.826 -35.593 87.892 -34.418 84.959 C-33.858 83.559 -33.297 82.16 -32.737 80.76 C-31.961 78.82 -31.183 76.88 -30.405 74.94 C-30.175 74.364 -29.945 73.789 -29.708 73.196 C-28.863 71.094 -28.014 69.027 -27 67 C-25.68 67 -24.36 67 -23 67 C-23.266 65.957 -23.532 64.914 -23.806 63.84 C-24.603 57.292 -21.546 51.484 -19.102 45.566 C-18.585 44.28 -18.071 42.994 -17.557 41.707 C-16.209 38.339 -14.839 34.98 -13.465 31.622 C-12.343 28.871 -11.236 26.113 -10.13 23.354 C-7.85 17.667 -5.56 11.983 -3.241 6.311 C-2.831 5.307 -2.422 4.303 -2 3.268 C-1 1 -1 1 0 0 Z " fill="#707070" transform="translate(132,180)"/>
<path d="M0 0 C-0.99 2.31 -0.99 2.31 -6 14 C-6.33 14 -6.66 14 -7 14 C-6.67 9.38 -6.34 4.76 -6 0 C-2 -1 -2 -1 0 0 Z " fill="#707070" transform="translate(109,184)"/>
<path d="M0 0 C7.92 0 15.84 0 24 0 C24.591 7.31 25.151 14.62 25.638 21.938 C25.857 25.166 26.132 28.378 26.484 31.594 C27.171 39.369 27.171 39.369 25.01 42.379 C22.906 44.651 20.7 46.405 18.188 48.23 C17.466 48.814 16.744 49.398 16 50 C16 50.99 16 51.98 16 53 C18.841 54.42 20.836 54.244 24 54 C26.316 53.178 28.453 52.082 30.625 50.938 C36.364 47.916 36.364 47.916 39.398 48.316 C39.663 48.429 39.663 48.429 41 49 C42.06 52.197 41.971 53.879 40.71 56.985 C40.397 57.77 40.085 58.556 39.762 59.366 C39.585 59.793 39.585 59.793 38.69 61.959 C38.323 62.872 37.956 63.784 37.578 64.724 C36.346 67.78 35.099 70.829 33.852 73.879 C32.974 76.047 32.098 78.216 31.223 80.386 C29.348 85.028 27.465 89.668 25.577 94.305 C22.623 101.562 19.684 108.825 16.749 116.089 C16.008 117.923 15.267 119.756 14.526 121.589 C14.03 122.816 13.535 124.042 13.039 125.268 C11.291 129.593 9.541 133.916 7.791 138.24 C-1.267 160.616 -10.211 183.037 -19.112 205.476 C-20.543 209.084 -21.975 212.691 -23.408 216.298 C-26.941 225.198 -30.472 234.098 -34 243 C-35.102 239.181 -34.707 236.113 -34.062 232.25 C-33.239 226.68 -32.751 221.194 -32.688 215.562 C-32.67 214.925 -32.653 214.288 -32.635 213.632 C-32.64 207.806 -33.778 202.621 -37.615 198.095 C-39.621 196.111 -41.691 194.236 -43.812 192.375 C-45.34 190.989 -46.866 189.601 -48.391 188.211 C-49.158 187.516 -49.926 186.821 -50.717 186.104 C-54.264 182.835 -57.668 179.428 -61.062 176 C-61.664 175.395 -62.265 174.789 -62.884 174.166 C-64.258 172.779 -65.63 171.39 -67 170 C-65.025 162.986 -62.636 156.251 -59.896 149.501 C-59.495 148.505 -59.095 147.509 -58.683 146.482 C-57.597 143.783 -56.508 141.086 -55.417 138.389 C-54.272 135.559 -53.133 132.726 -51.993 129.893 C-49.84 124.544 -47.683 119.197 -45.523 113.851 C-43.063 107.758 -40.607 101.663 -38.152 95.567 C-33.107 83.043 -28.056 70.521 -23 58 C-22.531 58.248 -22.062 58.495 -21.579 58.75 C-19.454 59.865 -17.321 60.964 -15.188 62.062 C-14.45 62.452 -13.712 62.842 -12.951 63.244 C-12.239 63.608 -11.527 63.972 -10.793 64.348 C-10.138 64.688 -9.484 65.028 -8.809 65.379 C-7 66 -7 66 -4 65 C-4.5 60.536 -5.487 58.083 -8.125 54.5 C-13.141 45.41 -12.26 34.036 -9.509 24.255 C-6.907 15.956 -3.486 7.959 0 0 Z " fill="#707070" transform="translate(189,208)"/>
<path d="M0 0 C4.62 0 9.24 0 14 0 C11.295 8.494 8.05 16.761 4.812 25.062 C4.248 26.515 3.683 27.967 3.119 29.42 C1.748 32.947 0.375 36.474 -1 40 C-1.99 39.67 -2.98 39.34 -4 39 C-3.555 29.85 -2.948 20.738 -2 11.625 C-1.917 10.811 -1.834 9.997 -1.749 9.159 C-1.708 8.778 -1.708 8.778 -1.5 6.852 C-1.428 6.179 -1.356 5.507 -1.281 4.815 C-1 3 -1 3 0 0 Z " fill="#707070" transform="translate(237,209)"/>
<path d="M0 0 C1.359 4.078 -0.151 6.523 -1.746 10.293 C-2.036 10.999 -2.326 11.705 -2.625 12.432 C-3.553 14.688 -4.495 16.938 -5.438 19.188 C-6.069 20.715 -6.7 22.243 -7.33 23.771 C-8.877 27.519 -10.435 31.26 -12 35 C-13.32 34.67 -14.64 34.34 -16 34 C-15.34 24.43 -14.68 14.86 -14 5 C-4 1 -4 1 0 0 Z " fill="#707070" transform="translate(315,208)"/>
<path d="M0 0 C0.33 0.165 0.33 0.165 2 1 C4.546 1.232 7.074 1.419 9.625 1.562 C10.331 1.606 11.038 1.649 11.766 1.693 C13.51 1.799 15.255 1.9 17 2 C17.362 6.143 17.701 10.286 18.019 14.433 C18.13 15.841 18.248 17.248 18.372 18.655 C18.55 20.687 18.705 22.72 18.855 24.754 C18.915 25.374 18.974 25.994 19.035 26.633 C19.315 30.81 18.583 33.683 16.728 37.437 C15.74 39.558 15.349 41.697 15 44 C17.64 43.34 20.28 42.68 23 42 C23.968 35.597 24.088 29.406 24 22.938 C23.918 16.839 23.932 11.016 25 5 C26.98 5 28.96 5 31 5 C31.165 10.94 31.165 10.94 32 41 C33.32 41.66 34.64 42.32 36 43 C35.323 47.182 33.957 50.94 32.367 54.844 C32.099 55.514 31.83 56.183 31.553 56.874 C30.665 59.084 29.771 61.292 28.875 63.5 C27.927 65.843 26.98 68.186 26.033 70.529 C25.372 72.162 24.711 73.794 24.05 75.427 C21.994 80.508 19.973 85.601 17.979 90.707 C16.668 94.061 15.344 97.41 14.018 100.759 C13.387 102.364 12.761 103.97 12.141 105.579 C8.822 114.178 5.884 121.589 -1 128 C-1.866 128.905 -2.73 129.812 -3.59 130.723 C-7.201 134.321 -10.796 137.888 -14.688 141.188 C-19.521 145.312 -23.925 149.873 -28.37 154.407 C-31.464 157.544 -34.597 160.563 -37.938 163.438 C-42.35 167.242 -46.42 171.345 -50.5 175.5 C-55.212 180.298 -59.977 184.917 -65.076 189.303 C-68.186 192.046 -71.091 194.984 -74 197.938 C-74.584 198.526 -75.168 199.114 -75.77 199.721 C-77.182 201.145 -78.592 202.571 -80 204 C-81 202 -81 202 -80.496 200.195 C-80.348 199.827 -80.348 199.827 -79.595 197.967 C-79.258 197.121 -78.921 196.276 -78.573 195.405 C-78.193 194.475 -77.812 193.544 -77.42 192.585 C-77.027 191.606 -76.633 190.626 -76.228 189.617 C-75.139 186.912 -74.044 184.209 -72.945 181.508 C-71.782 178.642 -70.628 175.773 -69.472 172.904 C-67.263 167.421 -65.045 161.941 -62.825 156.462 C-59.883 149.199 -56.951 141.932 -54.019 134.665 C-51.402 128.178 -48.782 121.692 -46.152 115.21 C-41.762 104.384 -37.414 93.547 -33.195 82.653 C-32.105 79.857 -31.014 77.062 -29.923 74.266 C-28.929 71.701 -27.954 69.128 -26.98 66.554 C-26.386 65.03 -25.791 63.505 -25.195 61.981 C-24.943 61.294 -24.69 60.607 -24.43 59.899 C-23.149 56.684 -22.409 55.218 -19.3 53.564 C-18.541 53.378 -17.782 53.192 -17 53 C-16.67 51.35 -16.34 49.7 -16 48 C-16.66 48 -17.32 48 -18 48 C-17.38 42.336 -15.348 37.467 -13.184 32.227 C-12.808 31.303 -12.432 30.379 -12.044 29.427 C-10.848 26.491 -9.643 23.558 -8.438 20.625 C-7.622 18.629 -6.808 16.633 -5.994 14.637 C-4.003 9.755 -2.004 4.876 0 0 Z " fill="#707070" transform="translate(262,210)"/>
</svg>
